<svg xmlns="http://www.w3.org/2000/svg" viewBox="0 0 400 120">
  <defs>
    <linearGradient id="phoneGrad" x1="0%" y1="0%" x2="100%" y2="100%">
      <stop offset="0%" style="stop-color:#1a3a5c"/>
      <stop offset="100%" style="stop-color:#3a7abf"/>
    </linearGradient>
    <linearGradient id="crossGrad" x1="0%" y1="0%" x2="100%" y2="100%">
      <stop offset="0%" style="stop-color:#4a90d9"/>
      <stop offset="100%" style="stop-color:#68b8ff"/>
    </linearGradient>
    <linearGradient id="ringGrad" x1="0%" y1="0%" x2="100%" y2="100%">
      <stop offset="0%" style="stop-color:#4a90d9" stop-opacity="0.6"/>
      <stop offset="100%" style="stop-color:#68b8ff" stop-opacity="0"/>
    </linearGradient>
  </defs>
  <rect x="16" y="12" width="52" height="96" rx="12" ry="12" fill="url(#phoneGrad)" />
  <rect x="22" y="24" width="40" height="60" rx="4" ry="4" fill="#e8f4fd" />
  <rect x="36" y="36" width="12" height="36" rx="2" fill="url(#crossGrad)" />
  <rect x="27" y="48" width="30" height="12" rx="2" fill="url(#crossGrad)" />
  <rect x="34" y="16" width="16" height="3" rx="1.5" fill="#2a5a8a" opacity="0.4" />
  <rect x="32" y="92" width="20" height="3" rx="1.5" fill="#2a5a8a" opacity="0.3" />
  <path d="M 62 28 Q 78 20 78 36" fill="none" stroke="url(#ringGrad)" stroke-width="2.5" stroke-linecap="round" />
  <path d="M 66 22 Q 88 12 88 40" fill="none" stroke="url(#ringGrad)" stroke-width="2" stroke-linecap="round" opacity="0.6" />
  <path d="M 70 16 Q 96 4 96 44" fill="none" stroke="url(#ringGrad)" stroke-width="1.5" stroke-linecap="round" opacity="0.3" />
  <text x="108" y="72" font-family="Inter, -apple-system, BlinkMacSystemFont, sans-serif" font-size="46" font-weight="700" fill="#1a3a5c" letter-spacing="-1">
    Doc<tspan fill="#4a90d9">Caller</tspan>
  </text>
  <text x="112" y="94" font-family="Inter, -apple-system, BlinkMacSystemFont, sans-serif" font-size="13" font-weight="400" fill="#6a8aaa" letter-spacing="0.5">
    AI Appointment Scheduler
  </text>
</svg>